<?xml version="1.0" encoding="UTF-8"?>
<svg version="1.1" xmlns="http://www.w3.org/2000/svg" width="900" height="900">
<path d="M0 0 C297 0 594 0 900 0 C900 297 900 594 900 900 C603 900 306 900 0 900 C0 603 0 306 0 0 Z " fill="#000d6b" transform="translate(0,0)"/>
<path d="M0 0 C41.11369624 -0.06875032 82.22738495 -0.12157148 123.34112724 -0.15319599 C128.20113245 -0.15694786 133.06113754 -0.16083085 137.92114258 -0.16479492 C138.8886331 -0.16558185 139.85612363 -0.16636878 140.85293204 -0.16717956 C156.49369237 -0.18021363 172.13441944 -0.2038564 187.77516007 -0.23145839 C203.83836635 -0.25956832 219.90155529 -0.27618805 235.96478516 -0.28226548 C245.86704389 -0.28637036 255.76920858 -0.29930898 265.67143834 -0.3237494 C272.47285546 -0.33967566 279.27422435 -0.34438486 286.07565873 -0.34050413 C289.99266958 -0.33859325 293.90951671 -0.34140603 297.82649803 -0.35761642 C346.39706381 -0.54850727 346.39706381 -0.54850727 360.9609375 12.796875 C376.95302922 29.0862175 376.16927723 55.99550282 376.1328125 77.27734375 C376.13348921 78.70113644 376.13446225 80.12492901 376.13571167 81.54872131 C376.13717191 84.50929888 376.13508904 87.46984595 376.13037109 90.43041992 C376.12468014 94.17943986 376.12795962 97.92838805 376.13394356 101.67740536 C376.13759937 104.61093156 376.13638776 107.54444145 376.13381577 110.47796822 C376.13316002 111.85832287 376.13392614 113.23867913 376.13629532 114.61903191 C376.15690635 129.99541346 375.31455689 144.19393066 371 159 C370.72414063 160.02351562 370.44828125 161.04703125 370.1640625 162.1015625 C367.19072387 171.7853718 361.15838165 178.65336912 352.25 183.4375 C340.39095741 188.78539946 327.66516664 190.16674645 314.79344177 190.12025452 C313.47108673 190.12153615 313.47108673 190.12153615 312.12201744 190.12284368 C309.19257048 190.12447989 306.26318185 190.11900779 303.33374023 190.11352539 C301.22406516 190.11324309 299.11438998 190.11340209 297.00471497 190.1139679 C291.29467757 190.1142542 285.58466128 190.10838441 279.87462878 190.10139394 C273.90088175 190.09513264 267.92713421 190.0945544 261.9533844 190.09336853 C250.64890271 190.0902634 239.34443072 190.08206104 228.03995329 190.07201904 C212.75879111 190.05873982 197.47762627 190.05335139 182.19645977 190.04751682 C158.13096592 190.0381206 134.06549253 190.01819621 110 190 C110 233.89 110 277.78 110 323 C102.11577362 316.24209167 102.11577362 316.24209167 98.84375 313.16015625 C98.13089844 312.48919922 97.41804687 311.81824219 96.68359375 311.12695312 C95.96300781 310.44568359 95.24242187 309.76441406 94.5 309.0625 C93.77941406 308.38509766 93.05882812 307.70769531 92.31640625 307.00976562 C88.89705758 303.78518998 85.5147283 300.53456429 82.203125 297.19921875 C79.96170982 294.94213158 77.69360162 292.79007108 75.25 290.75 C70.86645183 286.9792974 66.84544346 282.87891611 62.80859375 278.74609375 C60.33467599 276.07625379 60.33467599 276.07625379 58.22221375 275.03689575 C55.80551291 273.5848284 54.55168978 272.37948511 53 270 C51.94660178 264.15430654 52.11255985 258.35559921 52.2109375 252.43359375 C52.21639097 250.67644358 52.21916152 248.91928325 52.21939087 247.16212463 C52.22711948 243.47224376 52.25805041 239.78355293 52.30712891 236.09399414 C52.36871361 231.42744374 52.38768673 226.76203976 52.39130497 222.09512424 C52.45984126 163.68880973 52.45984126 163.68880973 67.51953125 147.3515625 C74.5360212 140.62529233 84.03762564 138.04938491 93.25 135.75 C93.8795459 135.58677246 94.5090918 135.42354492 95.15771484 135.25537109 C109.06637963 132.03935626 124.07808967 132.85777009 138.26757812 132.88647461 C140.25020852 132.88675737 142.23283902 132.88659701 144.21546936 132.8860321 C149.54700584 132.8857476 154.87851939 132.89158778 160.21005058 132.89860606 C165.80071773 132.90489782 171.39138552 132.90544798 176.98205566 132.90663147 C187.54611088 132.90972773 198.11015563 132.91791793 208.67420626 132.92798096 C220.71062257 132.93919531 232.74703941 132.94466591 244.78345966 132.94967639 C269.52231356 132.96010213 294.26115314 132.9784262 319 133 C319 107.92 319 82.84 319 57 C307.30187866 57.07069702 307.30187866 57.07069702 295.36743164 57.14282227 C270.4031799 57.28732766 245.43893938 57.38740569 220.47437996 57.45958797 C216.59546774 57.47084408 212.7165568 57.482493 208.83764648 57.49438477 C208.06543805 57.49674556 207.29322962 57.49910635 206.49762093 57.50153869 C194.00047392 57.5406813 181.50370019 57.61163133 169.00677449 57.69437516 C156.17998357 57.77859361 143.3533879 57.8285404 130.52633184 57.84679645 C122.61360422 57.85913472 114.70193175 57.89807456 106.78952902 57.9712482 C100.71811921 58.02452997 94.64761344 58.03008346 88.57594299 58.01796913 C86.08825629 58.02044402 83.60052944 58.03833273 81.11308098 58.07284927 C62.29493945 58.32115442 62.29493945 58.32115442 56.6206646 55.05457878 C54.36182048 52.81700913 52.73345953 50.64941643 51 48 C49.67760189 46.75634675 48.32194957 45.54613413 46.921875 44.390625 C42.92331044 40.95367881 39.0809547 37.37184664 35.25 33.75 C29.52658628 28.36149868 23.77247307 23.01261261 17.96484375 17.71484375 C15.77903293 15.7190389 13.6075581 13.70852965 11.44140625 11.69140625 C10.84674561 11.13864014 10.25208496 10.58587402 9.6394043 10.01635742 C8.48680958 8.94414291 7.33585559 7.87016123 6.18676758 6.79418945 C3.32057063 4.08409931 3.32057063 4.08409931 0 2 C0 1.34 0 0.68 0 0 Z " fill="#FCFDFD" transform="translate(443,288)"/>
<path d="M0 0 C1.13389585 -0.00085442 2.2677917 -0.00170885 3.43604803 -0.00258917 C7.22540728 -0.00423279 11.014722 0.00125911 14.80407715 0.00672913 C17.52443469 0.00756864 20.24479137 0.00689674 22.96514893 0.00628662 C28.81672118 0.00576324 34.66828225 0.00889066 40.51985168 0.01452446 C48.98015314 0.02266458 57.44044921 0.02525726 65.90075415 0.02651245 C79.62829717 0.02869902 93.35583424 0.03534841 107.08337402 0.04481506 C120.41540497 0.05399939 133.7474343 0.06107523 147.07946777 0.06532288 C148.31293126 0.06571696 148.31293126 0.06571696 149.5713132 0.06611901 C153.69675178 0.06742408 157.82219038 0.06868778 161.94762897 0.06993091 C196.15173578 0.08029123 230.35583551 0.09789881 264.55993652 0.12025452 C264.55993652 0.78025452 264.55993652 1.44025452 264.55993652 2.12025452 C263.89993652 2.12025452 263.23993652 2.12025452 262.55993652 2.12025452 C262.32661621 2.68228577 262.0932959 3.24431702 261.85290527 3.82337952 C260.24056576 6.68759593 258.24058032 8.59277473 255.87243652 10.87025452 C252.12686153 14.53510591 248.60931869 18.27800229 245.20446777 22.25697327 C243.0450675 24.70360968 240.72763369 26.96502574 238.39953613 29.24964905 C236.64104716 31.03777679 234.99818874 32.87820335 233.36462402 34.78041077 C229.42023172 39.31740255 225.31779888 43.69275164 221.18493652 48.05775452 C220.46177246 48.82410217 219.7386084 49.59044983 218.99353027 50.38002014 C212.63178867 57.11773709 212.63178867 57.11773709 209.04791927 57.24330235 C207.4324591 57.24754632 205.8169789 57.24610143 204.20152283 57.24050903 C202.8710449 57.24179067 202.8710449 57.24179067 201.51368862 57.2430982 C198.51793546 57.24475573 195.52223733 57.23922719 192.52648926 57.23377991 C190.38843792 57.23349807 188.25038649 57.2336557 186.11233521 57.23422241 C180.28819159 57.23451052 174.46406838 57.22861173 168.63992953 57.22164845 C162.56069971 57.21541703 156.48146947 57.21481129 150.40223694 57.21362305 C138.88145154 57.21050911 127.36067559 57.20229487 115.83989435 57.19227356 C100.27814046 57.17902969 84.716384 57.17361302 69.15462589 57.16777134 C44.62305569 57.15835502 20.09150541 57.13843652 -4.44006348 57.12025452 C-4.44006348 126.42025452 -4.44006348 195.72025452 -4.44006348 267.12025452 C64.46040234 266.64533611 64.46040234 266.64533611 133.35974121 266.03919983 C146.69909668 265.98500061 146.69909668 265.98500061 152.94793701 265.97492981 C157.30399216 265.96376844 161.65828477 265.91888446 166.01385498 265.85334778 C171.57852654 265.77073362 177.14065369 265.7464119 182.7058816 265.7633872 C184.74267293 265.75984056 186.77955757 265.73621274 188.81582022 265.68967295 C205.60511027 265.32392427 205.60511027 265.32392427 212.0444119 271.32458377 C214.37948467 273.8089349 216.45550841 276.43709972 218.55993652 279.12025452 C219.93758812 280.41247689 221.34150484 281.6787692 222.79431152 282.88587952 C226.92889133 286.4145663 230.86799716 290.12885317 234.80993652 293.87025452 C244.34012095 302.87658543 253.96750775 311.75713349 263.79431152 320.44056702 C264.37696777 320.99486389 264.95962402 321.54916077 265.55993652 322.12025452 C265.55993652 322.45025452 265.55993652 322.78025452 265.55993652 323.12025452 C229.77978169 323.21193966 193.99964756 323.28235891 158.2193993 323.32451583 C153.98899876 323.32951827 149.75859844 323.3346956 145.52819824 323.33998108 C144.68605123 323.34103032 143.84390422 323.34207956 142.9762376 323.3431606 C129.36527256 323.36053511 115.75437556 323.39205639 102.1434508 323.4288657 C88.16286436 323.46635756 74.18231339 323.48850774 60.20167875 323.4966085 C51.58456539 323.50207923 42.96764435 323.51931709 34.35059023 323.55192038 C28.43034164 323.57317025 22.51019154 323.57943106 16.58990765 323.57426003 C13.18122117 323.57171433 9.77313705 323.57766826 6.36446571 323.59707642 C-32.6004203 323.80794955 -32.6004203 323.80794955 -45.68225098 312.11634827 C-61.06826748 295.91312576 -61.74298293 271.96194942 -61.71472168 250.93006897 C-61.71907423 248.78694482 -61.72425918 246.64382222 -61.73020935 244.5007019 C-61.74355426 238.70292557 -61.74418289 232.90521462 -61.74164605 227.10742593 C-61.74057297 222.25453077 -61.74546849 217.40164865 -61.75025147 212.5487563 C-61.76133175 201.09088958 -61.76179283 189.63305564 -61.7557373 178.17518616 C-61.74970245 166.38675169 -61.7619996 154.59843673 -61.78330737 142.81002265 C-61.80097047 132.66185637 -61.8069172 122.51372796 -61.80366963 112.36554688 C-61.80186364 106.31660504 -61.80442407 100.26774839 -61.81838417 94.21882057 C-61.83103415 88.52484045 -61.82895102 82.83104534 -61.81597328 77.13706779 C-61.81362324 75.05874186 -61.81628507 72.98040262 -61.82459641 70.90209198 C-61.89521491 51.85547559 -61.07475102 29.68467701 -48.12756348 14.43275452 C-35.35931919 1.79155743 -17.20191782 -0.04769323 0 0 Z " fill="#FDFDFD" transform="translate(142.4400634765625,287.87974548339844)"/>
</svg>
